<svg version="1.1" xmlns="http://www.w3.org/2000/svg" viewBox="0 0 505.5 416" width="505.5" height="416">
  <!-- svg-source:excalidraw -->
  
  <defs>
    <style>
      @font-face {
        font-family: "Virgil";
        src: url("https://excalidraw.com/Virgil.woff2");
      }
      @font-face {
        font-family: "Cascadia";
        src: url("https://excalidraw.com/Cascadia.woff2");
      }
    </style>
  </defs>
  <g stroke-opacity="0" fill-opacity="0" transform="translate(370.5 251) rotate(0 41.5 22.5)"><text x="41.5" y="32" font-family="Virgil, Segoe UI Emoji" font-size="36px" fill="#000000" text-anchor="middle" style="white-space: pre;" direction="ltr">nnjnd</text></g><g stroke-opacity="0" fill-opacity="0" transform="translate(51.120000000000005 220) rotate(0 74.75555555555553 58)"><text x="74.75555555555556" y="81.00000000000003" font-family="Virgil, Segoe UI Emoji" font-size="92.8px" fill="#000000" text-anchor="middle" style="white-space: pre;" direction="ltr">ND</text></g><g stroke-opacity="0" fill-opacity="0" transform="translate(61.120000000000005 230) rotate(0 74.75555555555553 58)"><text x="74.75555555555556" y="81.00000000000003" font-family="Virgil, Segoe UI Emoji" font-size="92.8px" fill="#000000" text-anchor="middle" style="white-space: pre;" direction="ltr">ND</text></g><g stroke-opacity="0" fill-opacity="0" transform="translate(71.12 240) rotate(0 74.75555555555553 58)"><text x="74.75555555555556" y="81.00000000000003" font-family="Virgil, Segoe UI Emoji" font-size="92.8px" fill="#000000" text-anchor="middle" style="white-space: pre;" direction="ltr">ND</text></g><g stroke-opacity="0" fill-opacity="0" transform="translate(81.12 250) rotate(0 74.75555555555553 58)"><text x="74.75555555555556" y="81.00000000000003" font-family="Virgil, Segoe UI Emoji" font-size="92.8px" fill="#000000" text-anchor="middle" style="white-space: pre;" direction="ltr">ND</text></g><g stroke-opacity="0" fill-opacity="0" transform="translate(91.12 260) rotate(0 74.75555555555553 58)"><text x="74.75555555555556" y="81.00000000000003" font-family="Virgil, Segoe UI Emoji" font-size="92.8px" fill="#000000" text-anchor="middle" style="white-space: pre;" direction="ltr">ND</text></g><g stroke-opacity="0" fill-opacity="0" transform="translate(101.12 270) rotate(0 74.75555555555553 58)"><text x="74.75555555555556" y="81.00000000000003" font-family="Virgil, Segoe UI Emoji" font-size="92.8px" fill="#000000" text-anchor="middle" style="white-space: pre;" direction="ltr">ND</text></g><g stroke-opacity="0" fill-opacity="0" transform="translate(111.12 280) rotate(0 74.75555555555553 58)"><text x="74.75555555555556" y="81.00000000000003" font-family="Virgil, Segoe UI Emoji" font-size="92.8px" fill="#000000" text-anchor="middle" style="white-space: pre;" direction="ltr">ND</text></g><g stroke-opacity="0" fill-opacity="0" transform="translate(121.12 290) rotate(0 74.75555555555553 58)"><text x="74.75555555555556" y="81.00000000000003" font-family="Virgil, Segoe UI Emoji" font-size="92.8px" fill="#000000" text-anchor="middle" style="white-space: pre;" direction="ltr">ND</text></g><g stroke-linecap="round" transform="translate(10 177) rotate(0 119.5 100.5)"><path d="M0 0 C0 0, 0 0, 0 0 M0 0 C0 0, 0 0, 0 0 M-0.8 7.02 C0.68 4.68, 2.39 4.23, 4.36 -0.28 M-0.47 6.57 C1.42 4.18, 3.59 2.1, 5.3 0.22 M0.8 12.64 C4.09 6.48, 9.18 3.89, 11.62 1.07 M0.81 12.54 C3.65 8.46, 6.22 4.87, 10.04 -0.27 M1.28 17.6 C4.95 11.47, 10.22 5.22, 16.66 -1.35 M0.31 19.32 C4.42 14.07, 6.38 9.77, 15.67 0.47 M-1.22 22.5 C9.3 16.63, 12.89 8.83, 21.84 1.36 M-0.03 23.91 C5.82 17.31, 10.61 12.22, 20.61 -0.31 M1.7 30.95 C8.38 22.07, 15.22 11.65, 27.1 -1.36 M0.17 31.12 C10.65 19.21, 19.73 6.91, 27.22 -0.37 M-0.53 38.55 C10.17 24.86, 17.8 15.24, 32.92 -1.83 M0.27 35.9 C8.23 26.71, 16.59 17.45, 31.36 -0.46 M0.68 41.46 C10.05 31.53, 18.48 23, 35.12 -1.66 M-0.2 41.62 C11.42 29.96, 22.53 18.05, 36.03 -0.47 M-1.03 48.78 C10 37.29, 17.89 28.17, 42.08 0.31 M-0.35 48.3 C11.76 34.97, 25.67 19.72, 41.69 0.56 M1.46 55.39 C12.71 39.28, 24.99 28.27, 49.29 0.17 M-0.36 55.26 C9.6 43.31, 18.59 32.56, 48.1 0.31 M-0.56 62.12 C21.39 38.74, 38.66 13.9, 52.5 1.07 M0.36 61.11 C20.36 37.6, 38.14 15.89, 52.57 -0.83 M0.79 68.57 C16.18 47.64, 37.66 23.32, 58.36 1.35 M-1.15 66.36 C13.11 50.94, 25.81 36.8, 57.85 0.17 M-0.09 73.54 C25.3 44.85, 49.83 14.27, 65.52 -1.39 M-0.34 73.67 C17.86 54.64, 32.66 34.6, 64.36 -1.11 M-0.41 79.38 C23.96 49.79, 48.39 21.62, 67.27 1.92 M-0.01 80.04 C28.61 47.77, 54.63 16.76, 68.08 -0.56 M-0.45 84.84 C19.78 63.46, 37.76 38.21, 72.68 -0.13 M1.26 85.43 C14.51 67.69, 29.59 49.48, 74.82 0.34 M-1.02 93.25 C19.62 72.9, 37.84 51.96, 81.17 0.74 M-0.96 90.8 C22.38 67.78, 43.04 43.15, 80.04 0.53 M1.09 97.36 C23.19 67.98, 50.83 42.47, 83.7 0.6 M0.6 98.68 C18.31 75.98, 37.11 54.78, 85.14 -0.78 M-1.05 103.71 C34.93 67.24, 66.46 27.19, 89.36 -0.53 M0.06 103.47 C25.56 72.54, 51.42 43.34, 89.33 -0.07 M1.42 109.02 C29.32 78.24, 59.51 44.23, 94.5 1.38 M-0.51 109.54 C33.3 73.12, 66.03 34.25, 95.89 0.34 M1.65 117.07 C25.78 87.22, 47.56 59.17, 101.36 -1.42 M0.51 115.97 C23.71 88.59, 47.33 62.44, 100 0.26 M-0.36 122.8 C31.04 87.02, 64.39 49.17, 107.18 -0.41 M0.18 122.48 C23.9 95.12, 46.86 66.74, 107.07 -0.42 M-1.23 129.22 C24.62 97.38, 53.12 68.94, 110.85 1.38 M0.59 128.09 C40.51 79.72, 82.3 33.96, 110.5 0.19 M-0.31 135.74 C26.34 103.23, 49.48 73.99, 117.37 2.19 M0 133.32 C36.17 92.57, 71.99 51.48, 115.41 0.68 M-1.82 138.59 C37.37 97.55, 72.58 57.32, 123.73 1.95 M-0.11 140.42 C34.15 101.98, 66.25 64.74, 121.66 0.52 M1.7 147.68 C37.85 100.25, 78.24 54.97, 128.85 -1.34 M0.66 145.97 C33.05 109.49, 66.71 71.28, 127.02 0.23 M-0.05 150.89 C32.07 116.33, 65.61 80.8, 133.9 1.09 M-0.51 152.87 C34.23 114.23, 66.44 76.95, 132.73 0.1 M1.15 158.15 C28.85 125.97, 60.97 88.68, 137.63 1.44 M-0.34 159.14 C49.31 102.1, 98.45 46.4, 137.47 0.17 M-0.89 163.31 C44.92 110.98, 93.72 55.7, 143.97 -0.96 M0.26 163.97 C40.2 117.61, 79.69 70.03, 143.39 -0.05 M0.34 170.84 C39.55 124.85, 77.22 81.58, 146.82 -0.29 M0.67 171.45 C39.16 125.11, 80.55 78.71, 148.32 0.65 M0.33 177.99 C41.9 131.35, 79.34 85.9, 152.51 1.3 M0.83 176.7 C46.43 122.17, 92.39 68.7, 153.75 -0.77 M-0.84 183.02 C60.19 116.67, 114.61 51.34, 160.4 1.84 M0.34 182.17 C49.13 126.09, 96.35 71, 158.71 -0.56 M-1.09 188.28 C62.34 118.76, 122.5 48.13, 165.09 -1.23 M0.48 188.8 C54.04 126.9, 107.57 65.87, 164.24 0.56 M1.57 194.03 C55.43 131.98, 111.23 66.27, 170.93 -0.34 M-0.11 194.89 C60.73 127.5, 119.43 60.44, 169.03 0.28 M0.67 202.62 C41.31 152.45, 84.32 105.95, 174.07 -1.63 M-0.02 201.72 C47.11 146.77, 96.48 92.63, 175.52 0.01 M7.11 199.41 C65.85 129.62, 128.83 60.35, 179.76 -0.95 M5.93 200.56 C60.05 138.78, 116.13 75.28, 180.71 -0.49 M11.94 200.7 C61.14 145.27, 111.3 88.84, 185.14 -0.93 M9.78 201.46 C79.35 121.4, 147.15 42.12, 185.45 0.33 M16.89 199.67 C74.26 135.58, 133.38 69.51, 189.76 -0.19 M15.41 201.17 C73.79 135.4, 130.4 69.02, 189.99 0.83 M20.56 202.21 C86.36 129.15, 148.73 54.68, 197.62 -0.81 M21.01 201.5 C62.29 153.9, 103.25 107.49, 196.94 -0.52 M26.77 200.5 C87.23 134.5, 144.97 66.72, 202.3 -0.65 M26.7 201.63 C80.51 137.97, 135.97 74.81, 200.53 0.88 M32.87 202.78 C98.42 122.89, 163.58 46.06, 207.89 -0.81 M31.73 200.94 C76.61 151.18, 120.07 100.9, 206.91 0.23 M38.06 200.61 C98.11 129.98, 160.03 59.39, 211.04 -1.15 M37.4 200.86 C72.24 160.21, 107.96 119.94, 212.38 0.32 M41.17 201.82 C92.18 146.07, 141.82 90.25, 218.75 -1.4 M42.66 201.33 C80.12 158.52, 116.19 117.52, 217.35 -0.85 M49.01 200.92 C102.61 135.69, 159 72.14, 224.02 0.15 M48.61 201.06 C108.13 129.06, 170.37 58.83, 221.95 0.67 M52.08 202.55 C95.16 155.05, 136.28 107.6, 226.86 -0.8 M52.49 201.92 C119.55 123.19, 187.5 46.38, 228.96 -0.82 M58.07 201.4 C114.58 136.35, 169.81 74, 232.03 -0.59 M58.56 201.31 C113.02 139.02, 167.77 76.07, 233.08 -0.43 M64.5 202.5 C113.11 144.33, 161.01 87.29, 237.83 -0.61 M64.17 201.25 C129.58 127.52, 194.29 51.81, 237.41 0.91 M70.12 201.1 C130.51 129.49, 193.51 54.85, 241.43 2 M69 200.77 C114.88 150.73, 157.67 101.45, 242.45 2.53 M72.7 199.82 C116.18 151.07, 160.48 99.55, 242.73 9.02 M73.85 201.88 C118.42 149.31, 164.03 99.31, 241.28 7.9 M80.09 202.06 C113.93 162.03, 148.53 122.98, 243.11 12.87 M79.77 200.99 C134.77 135.36, 190.99 70.28, 241.62 14.92 M85.5 199.67 C131.17 146.58, 178.07 93.68, 241.86 20.05 M85.18 200.86 C124.74 154.77, 167.13 108.16, 242.45 21.2 M91.35 199.77 C144.31 136, 200.69 72.35, 240.76 27.54 M89.73 201.42 C146.67 135.24, 204.11 69.25, 240.92 26.21 M94 201.71 C144.85 143.69, 191.49 89.91, 242.14 33.18 M94.83 200.97 C137.1 152.48, 177.98 104.47, 241.28 32.18 M102.2 201.06 C136.95 160.22, 170.89 116.08, 243.3 39.89 M101.06 202.22 C151.14 143.8, 199.63 87.62, 242.18 39.44 M107.86 202.7 C151.03 151.79, 197.74 98.49, 240.75 45.34 M105.62 201.01 C154.34 146.02, 201.21 92.26, 241.92 44.35 M111.7 200.85 C145.39 160.17, 183.3 118.45, 242.73 49.65 M112.03 200.96 C145.77 164.55, 178.7 126.48, 241.09 50.58 M118.13 199.64 C159.33 150.14, 199.09 102.2, 241.34 56.24 M116.52 200.58 C167.87 143.82, 217.28 87.13, 241.48 56.96 M122.54 199.84 C161.45 156.07, 202.48 107.67, 243.67 64.57 M122.59 200.69 C156.53 160.59, 193.37 118.59, 242.61 62.92 M127.65 201.75 C152.54 170.97, 176.26 142.05, 242.8 70.16 M127.79 200.39 C156.61 166.52, 186.28 132.58, 240.94 68.94 M134.28 201.64 C164.77 162.35, 197.89 126.64, 242.03 73.59 M133.44 201.04 C168.3 160.64, 203.61 118.89, 241.53 75.19 M138.54 199.81 C164.58 167.55, 194.89 134.76, 241.58 80.63 M138.95 200.22 C170.11 163.12, 202.43 126.43, 241.81 81.47 M142.41 200.74 C178.89 160.11, 216.63 118.02, 243 87.09 M143.63 201.61 C177.16 162.56, 213.66 122.3, 241.3 87.91 M146.9 201.2 C170.55 172.92, 194.78 149.5, 243.11 95.21 M149 200.97 C184.97 160.34, 221.77 118.47, 242.65 93.12 M154.63 202.42 C182.27 172.12, 206.29 139.76, 239.92 102.02 M154.59 202.08 C172.58 178.34, 192.72 154.89, 240.76 100.43 M159.02 202.13 C187.63 169.85, 214.85 137.13, 241.04 104.24 M160.31 200.63 C181.81 174.55, 203.72 149.04, 242.44 106.53 M162.83 202.78 C190.39 167.6, 221.62 138.38, 242.37 110.39 M164.18 200.24 C195.5 166.63, 225.63 131.17, 242.18 111.46 M171.38 199.6 C194.5 169.28, 223.43 141.86, 240.53 117.65 M170.7 200.29 C185.2 182.45, 202.89 162.61, 241.89 119.23 M175.08 200.75 C199.46 172.8, 225.62 144.19, 242.77 124.26 M174.64 201.97 C195.89 176.41, 216.3 152.8, 241.89 124.06 M178.63 199.43 C206.63 173.19, 230.4 146.77, 240.89 129.9 M181.36 200.11 C197.87 181.13, 213.8 162.7, 242.11 130.55 M183.62 202.05 C202.32 180.73, 219.27 162.7, 243.71 136.53 M184.64 201.23 C199.4 182.97, 213.65 168.07, 241.64 136.37 M188.98 201.02 C209.94 182.36, 226.62 160.9, 243.66 144.54 M190.27 202.13 C206.05 185.51, 221.06 166.71, 242.62 142.19 M196.91 199.21 C206.61 187.2, 220.11 171.2, 241.32 149.64 M195.24 200.11 C209.71 185.54, 223.4 169.55, 241.9 148.37 M202.77 202.29 C217.62 182.31, 233.21 165.16, 243.23 155.18 M200.75 201.19 C214.14 186.98, 224.7 174.05, 242.04 155.17 M207.58 199.6 C216.41 186.69, 226.15 174.64, 239.89 160.59 M205.92 200.75 C218.23 187.94, 230.5 174.27, 242.54 160.9 M212.58 200.27 C218.41 193.94, 228.44 184.63, 242.16 166.22 M211.57 201.51 C224.46 188.63, 235.2 174.74, 241.37 166.63 M216.44 201.37 C228.71 188.62, 238.31 179.37, 239.93 173.46 M216.55 201.41 C223.97 193.1, 231.01 186.23, 240.86 172.14 M221.81 200.02 C227.96 194.64, 232.56 191.29, 242.56 177.64 M221.56 201.63 C226.11 197.39, 229.9 192.82, 241.35 178.55 M228.5 201.51 C233.61 195.16, 233.89 193.73, 240.8 184.38 M227.43 200.44 C233.38 195.56, 237.5 188.43, 242.23 184.59 M232.43 200.09 C236.84 198.22, 239.96 192.85, 241.02 190.52 M233.02 201.24 C236.17 197.81, 237.95 194.89, 241.3 191 M238.3 200.64 C239.32 200.6, 239.87 199.11, 242.53 197.43 M238.87 200.76 C239.64 200.33, 239.94 199.44, 241.88 197.33 M0.1 201.09 C0.1 201.09, 0.1 201.09, 0.1 201.09 M0.1 201.09 C0.1 201.09, 0.1 201.09, 0.1 201.09 M6.47 201.48 C2.79 199.32, 1.1 197.31, -0.63 195.36 M5.63 200.92 C3.8 199.44, 2.18 197.99, -0.12 195.25 M11.06 200.62 C8.45 198.61, 6.99 194.42, -0.79 189.13 M11.85 200.56 C8.03 197.99, 3.88 193.27, -0.38 190.69 M19.33 200.44 C14.79 198.56, 9.11 193.09, 0 186.57 M19 200.96 C12.42 195.54, 7.25 190.94, -1.26 184.47 M25.01 202.24 C15.52 192.17, 9.58 187.77, -0.32 179.86 M24.33 201.08 C15.89 194.25, 6.91 185.35, -0.53 180.14 M31.43 199.96 C20.6 194.37, 12.46 183.9, 1.23 172.62 M31.24 200.71 C22.86 194.1, 15.85 187.78, -0.1 174.21 M36.55 199.27 C27.07 192.83, 16.48 183.8, -0.91 168.88 M35.3 200.67 C28.19 193.77, 19.96 185.27, -0.11 168.75 M42.59 200.92 C27.49 188.41, 15.28 177.62, 1.6 162.23 M43.25 199.96 C32.47 190.88, 21.11 183.51, 0.77 164.82 M50.68 202.22 C32.45 187.45, 16.75 170.36, 1.09 159.96 M48.74 201 C33.06 187.96, 17.7 174.13, 0.62 158.36 M54.93 201.17 C41.72 188.35, 24.2 176.74, 0.07 155.11 M53.74 201.63 C39.88 186.46, 23.31 173.48, -0.35 154.09 M60.62 200.54 C44.86 186.84, 30.16 172.1, 1.77 148.02 M61.79 200.95 C39.33 182.99, 17.1 163.41, -0.08 148.86 M66.77 201.38 C51.04 187.41, 38.17 173.1, 0.07 141.72 M65.85 200.72 C45.93 181.62, 23.58 163.68, 0.49 142.83 M72.04 202.44 C43.78 177.3, 15.06 153.84, 1.37 138.78 M73.31 200.49 C51.17 183.71, 31 163.66, 0.44 138.2 M81.37 201.68 C62.89 187.59, 44.73 172.33, -1.55 132.7 M79.86 200.98 C50.49 178.12, 23.26 154.22, -0.08 132.33 M84.05 200.33 C56.27 177.09, 31.07 151.86, 0.34 124.79 M84.77 200 C56.9 176.29, 29.95 153.07, -0.75 126.47 M91.92 203.05 C65.48 178.29, 37.49 156.36, -1.77 123.5 M92.22 200.3 C59.69 173.94, 27.79 145.14, -0.05 120.94 M97.92 199.39 C67.28 173.1, 38.82 147.78, -0.69 117.39 M97.08 200.98 C63.54 170.47, 30.28 142.15, -0.17 115.81 M102.05 199.24 C68.97 169.26, 32.09 138.74, 0.66 110.39 M104.02 200.62 C69.49 170.01, 36.09 141.35, 0.01 110.11 M109.9 202.29 C87.48 183.09, 66.35 164.11, -0.9 106.75 M109.28 200.66 C84.95 181.81, 61.7 160.03, 0.05 104.49 M114.84 202.18 C86.07 171.98, 54.95 145.64, 1.13 102.41 M116.01 201.31 C82.13 172.69, 49.58 143.37, 0.94 100.4 M120.13 202.54 C80.24 167.11, 41.03 130.55, 0.73 93.85 M121.58 201.41 C88.33 170.72, 55.13 141.39, 0.2 94.84 M129.53 202.58 C90.88 169.53, 58.5 140.37, 1.26 89.48 M127.36 199.84 C95.13 172.65, 62.24 145.66, 0.96 89.46 M133.21 200.43 C95.06 165.65, 60.31 133.92, 1.37 82.49 M133.85 200.65 C86.41 159.8, 38.63 118.49, -1.03 83.31 M142.34 202.66 C97.46 161.51, 54.79 127, 0.83 78.27 M140.4 200.44 C106.57 171.14, 73.22 140.11, -0.28 80.02 M147.2 200.4 C114.37 171.23, 80.27 140.21, -1.58 75.25 M146.6 200.24 C113.22 172.62, 79.45 141.63, -0.54 74.44 M151.49 201.4 C112.67 163.31, 70.73 129.61, 1.63 68.32 M151.67 201.41 C104.82 158.44, 56.73 116.71, 0.26 67.97 M159.04 200.48 C123.08 170.63, 88.89 141.05, 1.23 61.72 M158.56 201.75 C101.58 149.88, 45.51 101.36, -0.77 62.86 M165.13 202.5 C99.89 146.46, 35.39 90.2, 0.33 59.62 M164.09 201.24 C116.97 157.76, 69.29 116.29, -0.78 58.04 M169.88 201.11 C117.34 155.11, 59.51 107.41, 0.86 54.1 M171.35 201.94 C118.11 153.91, 64.32 108.42, 0.73 52.07 M175.98 200.59 C129.88 158.4, 81.87 118.93, -0.96 46.34 M176.54 199.96 C132.35 162.08, 86.42 123.57, 0.03 46.6 M184.22 201.94 C132.9 153.71, 78.75 110.62, 1.2 43.04 M182.84 200.88 C111.56 139.83, 39.32 77.3, 0.96 43.02 M188.49 200.5 C115.35 138.08, 40.12 72.34, 1.48 37 M189.12 201.53 C142.34 158.73, 94.19 117.81, 0.28 36.36 M194.35 199.5 C148.74 160.23, 99.24 119.17, 1.35 30.94 M194.86 200.47 C119.54 135.83, 46.17 71.41, -0.29 32.05 M201.35 200.5 C152.92 158.36, 103.97 116.61, -0.04 27.1 M201.63 201.31 C127.5 139.42, 55.3 76.05, 0.57 25.77 M207.62 200.7 C159.67 159.49, 112.81 119.24, 0.03 21.52 M207.03 200.13 C125.09 132.47, 45.87 61.75, -0.45 21.66 M212.61 199.97 C171.11 162.23, 125.85 121.2, -1.38 16.37 M213.23 201.69 C155.43 150.46, 96.68 99.66, -0.58 15.86 M220.86 200.84 C161.35 152.24, 104.61 100.12, -0.72 11.13 M219.3 200.84 C168.14 157.74, 117.35 113.15, 0.04 11.13 M225.92 199.86 C173.81 154.56, 122.69 108.23, -0.27 5.17 M225.8 201.3 C161.39 145.1, 97.93 90.02, -0.45 5.38 M230.73 200.32 C178.67 153.79, 120.03 103.85, 0.98 -1.38 M231.93 200.9 C176.23 156.73, 122.75 109.63, -0.4 -0.11 M238.92 200.16 C146.05 122.94, 57.16 41.47, 7.93 0.31 M236.96 200.43 C171.74 142.74, 106.34 85.49, 6.84 -0.08 M240.46 199.26 C175.44 139.97, 110.07 82.53, 13.43 -1.79 M241 198.78 C191.23 155.19, 141.06 112.1, 12.05 -0.61 M241.31 192.79 C173.02 134.81, 102.4 72.4, 18.5 -1.02 M240.76 193.6 C151.78 114.87, 62.98 37.06, 18.56 0.06 M239.41 186.4 C160.89 118.72, 81.22 49.85, 23.89 -0.65 M241.35 187.56 C167.13 122.35, 92.04 58.47, 24.43 0.14 M241.46 182.98 C168.49 119.95, 94.73 55.08, 30.22 -1.38 M241.5 182.16 C170.04 118.73, 97.12 55.74, 30.68 -0.53 M239.52 175.91 C184.74 127.44, 124.6 74.34, 38.53 -1.23 M240.97 177.19 C191.02 130.7, 138.97 87.77, 36.84 -0.61 M241.32 171.3 C198.72 137.14, 157.07 98.88, 43.11 -0.94 M241.48 172.9 C191.73 127.66, 141.02 84.01, 42.53 0.28 M239.39 165.93 C183.15 118.88, 127.17 70.32, 49.29 -0.61 M241.39 166.06 C181.93 116.04, 123.19 65.03, 48.96 0.09 M242.25 160.26 C180.81 108.59, 119.69 56.37, 55.65 0.74 M240.98 161.7 C191.5 117.91, 139.64 74.41, 54.5 -0.76 M239.25 155.01 C190.67 114.46, 143.86 70.82, 59.63 -0.99 M240.52 156.59 C172.93 95.95, 105.67 38.35, 61.58 -0.5 M242.57 151.71 C188.79 103.88, 136.43 58.87, 68.78 -1.3 M240.67 150.72 C180.74 98.57, 120.64 46.57, 67.31 -0.68 M241.22 145.65 C180.98 94.26, 120.6 41.85, 72.83 0.26 M240.63 145.55 C202.16 111.53, 161.87 76.41, 73.34 -1 M240.49 139.7 C203.29 105.69, 164.03 70.87, 79.55 0.05 M241.68 140.74 C202.29 108.6, 165.11 74.79, 78.87 -0.69 M239.74 134.92 C192.78 90.48, 141.96 47.12, 85.6 -2.08 M241 134.5 C179.1 81.94, 118.26 29.74, 84.86 0.24 M241.52 130.98 C211.07 102.22, 175.73 70.93, 92.85 1.35 M240.1 129.08 C197.06 92.61, 150.72 53.13, 92.44 -0.92 M242.95 125.67 C188.7 79.69, 138.47 36.17, 98.91 0.42 M241.55 124.1 C208.04 96.68, 174.64 69.08, 97.96 0.35 M240.6 120.5 C209.29 88.37, 176.12 60.63, 103.71 -2.01 M241.7 118.57 C194.76 78.88, 147.52 39.05, 104.42 -1.02 M241.39 112.19 C198.91 76.5, 154.46 39.5, 111.43 -1.26 M242.21 114.7 C206.99 83.23, 172.63 53.66, 110.89 -0.34 M240.27 109.52 C211.05 81.75, 183.29 56.36, 117.1 -1.49 M241 108.44 C201.77 74.16, 162.42 38.65, 116.27 0.27 M242.06 104.69 C201.05 66.87, 160.14 34.39, 120.53 -0.26 M241.35 102.67 C204.99 73.11, 168.26 42.27, 122.37 -0.93 M239.35 98.21 C205.98 65.76, 171.65 34.52, 128.93 0.89 M240.91 97.93 C213.3 73.76, 184.73 48.53, 127.7 0.03 M242.38 94.25 C211.76 67.41, 180.15 37.3, 134.98 0.65 M240.81 93.56 C212.66 66.38, 183.23 39, 134.8 -1.22 M240.86 85.54 C214.25 60.71, 181.76 36.19, 139.04 -2.05 M240.7 86.4 C205.85 59.31, 172.21 29.63, 139.57 0.47 M241.94 80.74 C205.38 51.25, 172.62 20.48, 147.71 -2.48 M241.82 82 C220.46 63.66, 198.11 45.4, 147.01 -0.88 M239.98 77.31 C211.48 49.82, 181.78 26.45, 151.73 1.28 M240.06 77.29 C206.56 46.52, 171.42 15.23, 152.39 -1.15 M242.53 72.87 C209.07 41.84, 176.99 13.88, 160.6 1.85 M241.03 71.74 C216.01 50.46, 190.59 28.72, 158.96 -0.84 M240.11 66.12 C212.31 41.98, 188.56 22.11, 164.72 -1.35 M241.1 66.12 C222.9 50.46, 202.46 32.45, 165.34 -1.12 M240.14 60.15 C225.19 48.84, 208.93 32.45, 169.48 -2 M240.49 61.62 C215.61 38.8, 191.01 17.22, 170.79 0.07 M240.79 55.38 C213.84 32.21, 189.97 12.41, 177.92 -1.36 M240.32 54.54 C218.87 37.3, 199.38 19.16, 177.02 -0.64 M240.91 48.89 C220.87 33.06, 203.46 18.5, 184.6 -0.9 M241.66 49.54 C220.51 34.01, 202.79 16.24, 183.27 -0.88 M241.81 43.32 C228.94 33.62, 215.68 20.65, 190.2 -0.73 M240.62 44.26 C226.59 31.97, 211.76 19.25, 190.15 0.84 M241.21 38.23 C228.03 30.7, 218.19 18.7, 195.66 0.44 M241.4 40.54 C225.13 25.88, 210.6 12.6, 194.86 -1 M239.09 34.98 C231.44 25.5, 221.98 18.16, 200.33 1.44 M241.33 33.1 C226.77 21.4, 210.62 8.95, 200.63 -1 M239.57 28.11 C226.4 17.3, 213.51 4.68, 208.54 0.12 M241.97 28.73 C230.82 19.34, 219.66 9, 206.4 -1.51 M240.77 22.21 C233.85 18.75, 227.21 11.41, 215.53 0.8 M240.16 22.97 C233.16 18.39, 226.11 10.66, 214.01 0.58 M240.72 19.3 C235.08 13.23, 226.17 5.33, 218.05 -0.28 M241.07 19.31 C236.73 14.91, 233.36 9.91, 219.9 -0.87 M239.93 12.34 C236.94 9.26, 231.04 6.14, 224.48 1.18 M242.01 12.52 C235.1 7.91, 227.94 2.69, 226.5 -1.26 M240.16 8.71 C236.71 4.12, 235.51 2.04, 232.57 0.93 M241.48 8.24 C238.13 4.63, 234.08 1.36, 231.7 0.29 M240.95 2.45 C239.76 1.57, 238.61 0.35, 237.73 -0.59 M241.53 2.7 C240.54 1.67, 239.17 1.17, 237.65 -0.46" stroke="#15aabf" stroke-width="0.5" fill="none"></path><path d="M1.2 1.63 C69.34 -0.47, 138.55 1.18, 239.8 1 M-0.48 0.67 C72.72 -0.48, 144.21 -0.06, 239.65 -0.27 M239.47 -0.18 C239.49 72.25, 241.04 144.88, 239.15 199.68 M239.67 -0.39 C238.77 56.84, 238.49 113.36, 239.8 200.21 M237.71 200.03 C175.22 198.73, 112.18 198.92, 0.78 202.46 M238.31 201.03 C148.57 203.52, 58.43 203.1, 0.01 200.39 M-1.28 200.15 C-1.7 158.84, -2.22 117.34, 0.72 1.61 M-0.32 200.16 C2.05 134.68, 1.11 70.5, 0 -0.06" stroke="#000000" stroke-width="1" fill="none"></path></g><g stroke-linecap="round" transform="translate(47 200) rotate(0 83.5 76)"><path d="M-1 -1.42 L166.05 0.08 L166.95 151.5 L0.63 152.8" stroke="none" stroke-width="0" fill="#868e96"></path><path d="M0.4 -0.97 C64.49 -2.42, 132.06 0.77, 165.63 1.16 M-0.61 0 C48.91 1.04, 95.65 -0.3, 166.91 0.52 M166.79 -0.22 C167.5 49.52, 169.05 96.72, 167.02 153.17 M167.96 0.35 C166.58 52.38, 166.91 102.73, 167.65 152.52 M166.5 150.79 C105.89 149.85, 42.51 150.37, -0.37 151.3 M167.44 152.24 C105.79 151.4, 45.19 150.39, -0.34 152.39 M-0.36 150.67 C1.33 114.16, 2.1 80.26, 1.56 -0.63 M-0.04 152.64 C1.52 91.46, 1.28 29.9, -0.9 0.98" stroke="#000000" stroke-width="1" fill="none"></path></g><g stroke-opacity="0" fill-opacity="0" transform="translate(440.5 10) rotate(0 27.5 22.5)"><text x="27.5" y="32" font-family="Virgil, Segoe UI Emoji" font-size="36px" fill="#000000" text-anchor="middle" style="white-space: pre;" direction="ltr">ndf</text></g><g transform="translate(56 218) rotate(0 75 59)"><text x="75" y="83" font-family="Virgil, Segoe UI Emoji" font-size="93.60000000000004px" fill="#ffff" text-anchor="middle" style="white-space: pre;" direction="ltr">ND</text></g></svg>